<svg height="960" viewBox="0 0 960 960" width="960" xmlns="http://www.w3.org/2000/svg"><g  xmlns="http://www.w3.org/2000/svg" height="960" viewBox="0 0 960 960" width="960"><g fill="#000" fill-rule="nonzero"><path d="m665.826118 6.68949845-546.213354 31.79594445c-51.765489 3.0136062-92.1986009 45.8917044-92.1986009 97.7624941v546.242733c0 13.968781 4.3853999 27.583469 12.5396746 38.922472l136.9870513 190.53107c19.990617 27.80367 53.083684 43.098482 87.20683 40.303634l599.986468-49.146735c34.276567-2.809326 60.780167-31.250982 61.186039-65.647676l7.268579-615.487284c.226633-20.234834-8.72888-39.472379-24.357367-52.307286l-175.976923-144.509111c-.801207-.6579367-1.652359-1.2525798-2.545759-1.778553-20.053857-11.8063363-45.462096-17.75438786-63.882638-16.68170255zm41.714077 50.08808975.611805.3374118 174.693776 143.456131c6.250129 5.132923 9.833825 12.831144 9.74311 20.930692l-7.265875 615.479602c-.162358 13.759442-10.758768 25.130707-24.45535 26.253286l-599.985363 49.146645c-20.135512 1.649194-39.665311-7.377004-51.464388-23.787585l-136.9881519-190.532601c-3.2615905-4.535435-5.015595-9.980828-5.015595-15.5705v-546.242733c0-30.687025 23.9150333-56.0481975 54.5232279-57.8300998l546.213683-31.7959637c10.104719-.5884291 26.5001 3.1112526 39.389121 10.1557147z"></path><path d="m854.806457 217.873303-563.691396 32.054785c-29.311596 1.666526-52.224503 25.935678-52.224503 55.309076v557.63093c0 32.4268 27.709486 57.923831 60.003925 55.205298l552.804532-46.523498c28.678854-2.413679 50.723732-26.409686 50.723732-55.205316v-553.456382c0-25.905471-21.764047-46.485297-47.61629-45.014893zm27.61629 45.014893v553.456382c0 18.403401-14.084233 33.734189-32.401016 35.275772l-552.804703 46.523513c-20.624438 1.736156-38.32647-14.552463-38.32647-35.275769v-557.63093c0-18.771712 14.638731-34.276928 33.359883-35.341329l563.691612-32.054797c14.374692-.817593 26.480694 10.6297 26.480694 25.047158z"></path><path d="m176.634159 207.080456-99.9296781-106.387266c-10.4843679-11.2411084-23.6545925-9.0379091-31.365086 2.818419-5.0140867 7.710098-7.9252318 19.516072-7.9252318 30.654904v514.794395c0 8.588952 2.694457 16.960714 7.7059513 23.936087l133.9310046 186.419296c8.776189 12.21284 28.066907 6.015449 28.066907-9.029555v-566.254341c0-28.590497-10.899498-56.105606-30.483867-76.951939zm-114.509159-92.695456 99.93211 106.388871.506084.543041c15.782787 17.071989 24.554832 39.461255 24.554832 62.715483v552.234605l-125.7552761-175.039487c-2.5678705-3.574154-3.9485868-7.864082-3.9485868-12.266605v-514.794395c0-7.363854 1.9008405-15.23624 4.512445-19.468412z"></path><path d="m685.221349 16.6173821-549.967349 32.2026179.319939-.0006179c-11.310668 0-22.345025 3.1953807-30.142466 8.4792709-4.292034 2.9084717-7.5597523 6.4117625-9.3109853 10.4888726-2.4178395 5.6290615-1.6069222 11.8017857 2.53885 16.5207229l108.5376303 123.0467505c15.316632 17.429719 37.894335 26.829452 61.132785 25.451045l605.271425-35.975091c16.32187-.968917 22.980066-21.447742 10.28118-31.776298l-169.324076-137.6642494c-7.907879-6.4303472-20.010284-11.3151573-29.336933-10.7730235zm16.71957 26.2908242 165.155081 134.2737937-599.95168 35.659206-.582307.031485c-16.686932.814771-32.851797-5.915052-43.968214-18.299526l-106.279799-120.483165.336986-.2347014c4.282739-2.902173 11.161967-4.9348273 18.380929-5.0322547l.542024-.0036618c.194977 0 .389911-.0057024.584554-.0170998l550.227704-32.2188513c3.660011-.212746 10.870796 2.6583905 15.246453 6.0790318z"></path></g><path fill-rule="evenodd" clip-rule="evenodd" d="M 383.055 471.407 C 392.454 474.887 399.905 482.138 403.58 491.342 L 443.883 597.522 C 443.971 597.749 443.857 598.011 443.623 598.104 L 443.462 598.131 L 424.8 598.131 C 424.612 598.131 424.444 598.016 424.377 597.837 L 386.589 498.277 C 384.862 493.711 381.22 490.117 376.601 488.41 C 367.906 485.183 358.234 489.428 354.785 497.896 L 345.682 521.867 C 336.919 526.252 330.915 535.235 330.915 545.603 C 330.915 549.137 331.61 552.512 332.876 555.597 L 316.844 597.837 C 316.777 598.016 316.611 598.131 316.423 598.131 L 297.76 598.137 C 297.513 598.137 297.311 597.937 297.311 597.684 L 297.338 597.522 L 337.428 491.898 C 344.296 473.79 364.725 464.615 383.055 471.407 Z M 491.405 494.18 L 493.554 494.16 L 496.184 494.248 L 498.252 494.416 L 500.548 494.696 L 502.154 494.957 L 504.485 495.425 L 506.137 495.827 L 507.142 496.094 L 509.002 496.664 L 510.582 497.2 L 511.313 497.474 L 513.272 498.257 L 514.699 498.886 L 516.245 499.635 L 517.898 500.499 L 518.695 500.947 L 520.248 501.872 L 521.721 502.816 L 522.357 503.251 L 524.064 504.476 L 525.43 505.533 L 526.667 506.563 L 527.457 507.254 L 528.709 508.405 L 529.458 509.135 L 530.243 509.931 L 531.06 510.795 L 531.856 511.679 L 532.545 512.482 L 533.804 514.021 L 535.404 516.191 L 536 517.046 L 536.97 518.56 L 537.607 519.604 L 538.677 521.526 L 539.447 523.025 L 540.29 524.825 L 540.954 526.393 L 541.562 527.972 L 542.072 529.431 L 542.498 530.777 L 542.841 531.962 L 543.061 532.804 C 543.229 533.447 543.382 534.089 543.523 534.739 L 543.75 535.864 L 543.952 536.996 L 544.132 538.141 C 544.233 538.823 544.32 539.505 544.394 540.187 L 544.486 541.226 C 544.567 542.115 544.621 543.019 544.648 543.923 L 544.675 544.962 L 544.675 621.82 C 544.675 622.544 544.091 623.127 543.369 623.127 L 527.679 623.127 C 527.01 623.127 526.46 622.625 526.386 621.974 L 526.373 621.82 L 526.373 584.911 L 524.741 586.237 L 523.409 587.24 L 522.357 587.976 L 521.446 588.591 L 520.276 589.342 L 518.856 590.186 L 516.915 591.249 L 516.058 591.685 L 514.512 592.427 L 512.444 593.311 L 510.689 593.988 L 509.76 594.316 L 507.517 595.025 L 506.7 595.252 L 504.791 595.734 L 502.924 596.129 L 501.239 596.43 L 500.299 596.565 L 498.52 596.785 L 497.678 596.865 L 496.35 596.966 L 494.73 597.047 L 493.045 597.072 C 464.528 597.072 441.406 574.033 441.406 545.617 C 441.406 517.743 463.644 495.044 491.405 494.18 Z M 459.708 545.617 C 459.708 527.268 474.635 512.395 493.045 512.395 C 494.135 512.395 495.212 512.448 496.278 512.549 L 497.066 512.635 L 498.667 512.863 L 499.477 513.01 L 500.413 513.211 L 501.914 513.586 L 503.48 514.055 L 505.12 514.643 C 505.829 514.919 506.525 515.219 507.209 515.54 L 507.698 515.769 L 509.352 516.638 L 510.656 517.409 C 511.131 517.703 511.607 518.011 512.067 518.332 L 512.845 518.888 L 513.635 519.491 C 514.759 520.373 515.816 521.318 516.821 522.336 L 517.885 523.467 C 522.812 528.949 525.938 536.072 526.333 543.916 L 526.354 544.338 L 526.373 546.079 C 526.139 562.761 513.575 576.477 497.348 578.559 L 496.325 578.678 L 494.972 578.779 L 493.045 578.832 C 474.635 578.832 459.708 563.959 459.708 545.617 Z M 358.662 528.962 C 368.496 528.962 376.475 536.855 376.475 546.595 C 376.475 556.328 368.496 564.219 358.662 564.219 C 348.822 564.219 340.85 556.328 340.85 546.595 C 340.85 536.855 348.822 528.962 358.662 528.962 Z M 634.99 500.653 L 634.106 500.171 L 631.824 499.033 L 630.016 498.223 L 627.714 497.319 C 626.556 496.891 625.378 496.509 624.186 496.162 L 623.323 495.926 C 621.575 495.459 619.794 495.078 617.98 494.79 L 617.458 494.71 L 615.008 494.409 L 613.704 494.301 C 612.425 494.207 611.139 494.153 609.834 494.153 C 581.318 494.153 558.204 517.14 558.204 545.496 C 558.204 573.852 581.318 596.84 609.834 596.84 L 611.474 596.813 L 613.924 596.679 L 616.529 596.412 L 618.57 596.102 L 620.637 595.707 L 622.672 595.24 L 624.595 594.709 L 626.957 593.948 L 628.683 593.311 L 630.619 592.508 L 632.661 591.557 L 634.301 590.713 L 636 589.764 L 638.068 588.492 L 639.977 587.186 C 641.008 586.45 642.006 585.674 642.969 584.87 L 643.17 584.702 L 643.177 596.986 C 643.251 597.637 643.805 598.137 644.476 598.137 L 660.158 598.137 C 660.882 598.137 661.47 597.556 661.47 596.84 L 661.47 544.847 L 661.363 542.249 L 661.21 540.362 L 660.956 538.213 L 660.662 536.393 L 660.227 534.264 L 659.87 532.763 L 659.202 530.401 L 658.82 529.229 L 658.219 527.537 L 657.079 524.746 L 656.229 522.931 L 655.004 520.609 L 653.987 518.868 L 653.413 517.95 L 652.435 516.471 L 651.683 515.419 L 650.294 513.599 L 649.509 512.642 L 647.983 510.902 L 646.872 509.723 L 645.486 508.358 L 644.615 507.548 L 643.523 506.584 L 641.041 504.589 L 639.394 503.398 L 637.373 502.06 L 634.99 500.653 Z M 609.834 512.354 C 591.426 512.354 576.505 527.188 576.505 545.496 C 576.505 563.798 591.426 578.639 609.834 578.639 L 611.862 578.579 L 613.013 578.491 L 614.915 578.256 L 615.243 578.202 C 616.179 578.056 617.11 577.861 618.027 577.634 L 619.694 577.172 L 621.429 576.582 L 622.111 576.329 L 623.027 575.94 L 624.674 575.184 L 626.221 574.368 L 627.46 573.63 L 628.591 572.901 L 629.888 571.971 C 637.889 565.974 643.083 556.474 643.17 545.765 L 643.116 543.589 C 642.849 538.89 641.591 534.452 639.556 530.474 L 638.638 528.802 L 637.6 527.149 L 637.171 526.519 L 636.349 525.408 L 635.598 524.464 L 634.709 523.427 L 634.052 522.724 L 633.109 521.766 L 631.676 520.461 L 630.217 519.269 L 629.058 518.419 L 627.841 517.602 L 626.221 516.626 L 625.437 516.204 L 623.805 515.392 L 622.506 514.831 L 620.987 514.255 L 619.72 513.835 L 618.476 513.478 L 617.076 513.137 L 615.665 512.857 L 614.231 512.635 L 613.395 512.542 C 612.23 512.415 611.039 512.354 609.834 512.354 Z M 816.284 507.836 L 815.608 507.221 L 814.055 505.895 L 813.097 505.125 L 811.511 503.934 L 809.878 502.796 L 807.856 501.517 L 806.048 500.487 L 805.025 499.944 L 803.746 499.302 L 802.045 498.518 L 800.627 497.916 L 799.469 497.461 L 797.158 496.657 L 795.291 496.094 L 794.287 495.82 L 792.641 495.419 L 790.312 494.957 L 788.697 494.696 L 787.793 494.568 L 786.402 494.416 L 784.822 494.281 L 782.974 494.187 L 781.703 494.16 L 779.554 494.18 C 751.8 495.044 729.563 517.69 729.563 545.496 C 729.563 573.852 752.677 596.84 781.194 596.84 L 782.888 596.813 L 784.501 596.733 L 785.827 596.632 L 787.419 596.464 L 788.45 596.331 L 789.388 596.19 L 791.074 595.896 L 792.159 595.674 L 792.942 595.501 L 794.026 595.24 L 795.666 594.79 L 797.152 594.336 L 798.839 593.76 L 800.6 593.091 L 802.005 592.494 L 804.215 591.463 L 805.072 591.029 L 807.013 589.97 L 808.974 588.779 L 810.506 587.762 L 811.558 587.025 L 812.897 586.021 L 814.529 584.702 L 814.536 596.986 C 814.61 597.637 815.166 598.137 815.835 598.137 L 831.518 598.137 C 832.243 598.137 832.824 597.556 832.824 596.84 L 832.824 544.847 L 832.797 543.81 C 832.77 542.906 832.717 542.009 832.644 541.118 L 832.543 540.088 L 832.288 538.038 C 832.175 537.277 832.048 536.519 831.9 535.763 L 831.673 534.645 L 831.211 532.718 L 830.991 531.874 L 830.408 529.927 L 830.019 528.749 L 829.398 527.048 L 829.104 526.317 L 828.44 524.751 L 827.603 522.958 L 826.833 521.459 L 826.257 520.42 L 825.119 518.506 L 824.724 517.871 L 823.56 516.137 L 822.589 514.804 L 821.424 513.319 L 820.701 512.435 L 820.006 511.638 L 818.399 509.891 L 817.609 509.101 L 816.284 507.836 Z M 781.194 512.354 C 762.785 512.354 747.864 527.188 747.864 545.496 C 747.864 563.798 762.785 578.639 781.194 578.639 L 783.122 578.584 L 784.474 578.485 L 785.498 578.364 C 801.724 576.288 814.296 562.606 814.522 545.958 L 814.522 544.881 L 814.482 543.804 C 814.087 535.978 810.962 528.868 806.036 523.4 L 805.446 522.765 L 804.971 522.269 C 803.973 521.257 802.909 520.313 801.791 519.437 L 800.995 518.834 L 800.217 518.279 C 799.756 517.957 799.288 517.649 798.805 517.355 L 797.5 516.586 L 795.846 515.722 L 795.365 515.488 C 794.681 515.167 793.979 514.872 793.277 514.596 L 792.373 514.263 L 790.571 513.68 L 789.46 513.379 L 787.625 512.969 L 786.817 512.823 L 786 512.697 L 784.426 512.509 C 783.362 512.408 782.285 512.354 781.194 512.354 Z M 727.754 514.028 L 727.754 495.941 L 726.891 495.948 C 698.401 496.404 675.448 519.168 675.448 547.19 L 675.448 597.684 C 675.448 597.937 675.65 598.137 675.897 598.137 L 693.454 598.137 C 693.703 598.137 693.911 597.937 693.911 597.684 L 693.911 546.64 C 694.212 528.581 709.247 514.028 727.754 514.028 Z" style="transform-box: fill-box; transform-origin: 50% 50%;" transform="matrix(0.998135, -0.061048, 0.061048, 0.998135, -0.000002, -0.000003)"></path></g></svg>