<svg height="960" viewBox="0 0 960 960" width="960" xmlns="http://www.w3.org/2000/svg"><svg height="960" viewBox="0 0 960 960" width="960" xmlns="http://www.w3.org/2000/svg">
<g xmlns="http://www.w3.org/2000/svg" height="960" viewBox="0 0 960 960" width="960"><g fill="#000" fill-rule="nonzero"><path d="m665.826118 6.68949845-546.213354 31.79594445c-51.765489 3.0136062-92.1986009 45.8917044-92.1986009 97.7624941v546.242733c0 13.968781 4.3853999 27.583469 12.5396746 38.922472l136.9870513 190.53107c19.990617 27.80367 53.083684 43.098482 87.20683 40.303634l599.986468-49.146735c34.276567-2.809326 60.780167-31.250982 61.186039-65.647676l7.268579-615.487284c.226633-20.234834-8.72888-39.472379-24.357367-52.307286l-175.976923-144.509111c-.801207-.6579367-1.652359-1.2525798-2.545759-1.778553-20.053857-11.8063363-45.462096-17.75438786-63.882638-16.68170255zm41.714077 50.08808975.611805.3374118 174.693776 143.456131c6.250129 5.132923 9.833825 12.831144 9.74311 20.930692l-7.265875 615.479602c-.162358 13.759442-10.758768 25.130707-24.45535 26.253286l-599.985363 49.146645c-20.135512 1.649194-39.665311-7.377004-51.464388-23.787585l-136.9881519-190.532601c-3.2615905-4.535435-5.015595-9.980828-5.015595-15.5705v-546.242733c0-30.687025 23.9150333-56.0481975 54.5232279-57.8300998l546.213683-31.7959637c10.104719-.5884291 26.5001 3.1112526 39.389121 10.1557147z"></path><path d="m854.806457 217.873303-563.691396 32.054785c-29.311596 1.666526-52.224503 25.935678-52.224503 55.309076v557.63093c0 32.4268 27.709486 57.923831 60.003925 55.205298l552.804532-46.523498c28.678854-2.413679 50.723732-26.409686 50.723732-55.205316v-553.456382c0-25.905471-21.764047-46.485297-47.61629-45.014893zm27.61629 45.014893v553.456382c0 18.403401-14.084233 33.734189-32.401016 35.275772l-552.804703 46.523513c-20.624438 1.736156-38.32647-14.552463-38.32647-35.275769v-557.63093c0-18.771712 14.638731-34.276928 33.359883-35.341329l563.691612-32.054797c14.374692-.817593 26.480694 10.6297 26.480694 25.047158z"></path><path d="m176.634159 207.080456-99.9296781-106.387266c-10.4843679-11.2411084-23.6545925-9.0379091-31.365086 2.818419-5.0140867 7.710098-7.9252318 19.516072-7.9252318 30.654904v514.794395c0 8.588952 2.694457 16.960714 7.7059513 23.936087l133.9310046 186.419296c8.776189 12.21284 28.066907 6.015449 28.066907-9.029555v-566.254341c0-28.590497-10.899498-56.105606-30.483867-76.951939zm-114.509159-92.695456 99.93211 106.388871.506084.543041c15.782787 17.071989 24.554832 39.461255 24.554832 62.715483v552.234605l-125.7552761-175.039487c-2.5678705-3.574154-3.9485868-7.864082-3.9485868-12.266605v-514.794395c0-7.363854 1.9008405-15.23624 4.512445-19.468412z"></path><path d="m685.221349 16.6173821-549.967349 32.2026179.319939-.0006179c-11.310668 0-22.345025 3.1953807-30.142466 8.4792709-4.292034 2.9084717-7.5597523 6.4117625-9.3109853 10.4888726-2.4178395 5.6290615-1.6069222 11.8017857 2.53885 16.5207229l108.5376303 123.0467505c15.316632 17.429719 37.894335 26.829452 61.132785 25.451045l605.271425-35.975091c16.32187-.968917 22.980066-21.447742 10.28118-31.776298l-169.324076-137.6642494c-7.907879-6.4303472-20.010284-11.3151573-29.336933-10.7730235zm16.71957 26.2908242 165.155081 134.2737937-599.95168 35.659206-.582307.031485c-16.686932.814771-32.851797-5.915052-43.968214-18.299526l-106.279799-120.483165.336986-.2347014c4.282739-2.902173 11.161967-4.9348273 18.380929-5.0322547l.542024-.0036618c.194977 0 .389911-.0057024.584554-.0170998l550.227704-32.2188513c3.660011-.212746 10.870796 2.6583905 15.246453 6.0790318z"></path></g><path fill-rule="evenodd" clip-rule="evenodd" d="M 371.008 478.291 C 380.407 481.771 387.858 489.022 391.533 498.226 L 431.836 604.406 C 431.924 604.633 431.81 604.895 431.576 604.988 L 431.415 605.015 L 412.753 605.015 C 412.565 605.015 412.397 604.9 412.33 604.721 L 374.542 505.161 C 372.815 500.595 369.173 497.001 364.554 495.294 C 355.859 492.067 346.187 496.312 342.738 504.78 L 333.635 528.751 C 324.872 533.136 318.868 542.119 318.868 552.487 C 318.868 556.021 319.563 559.396 320.829 562.481 L 304.797 604.721 C 304.73 604.9 304.564 605.015 304.376 605.015 L 285.713 605.021 C 285.466 605.021 285.264 604.821 285.264 604.568 L 285.291 604.406 L 325.381 498.782 C 332.249 480.674 352.678 471.499 371.008 478.291 Z M 479.358 501.064 L 481.507 501.044 L 484.137 501.132 L 486.205 501.3 L 488.501 501.58 L 490.107 501.841 L 492.438 502.309 L 494.09 502.711 L 495.095 502.978 L 496.955 503.548 L 498.535 504.084 L 499.266 504.358 L 501.225 505.141 L 502.652 505.77 L 504.198 506.519 L 505.851 507.383 L 506.648 507.831 L 508.201 508.756 L 509.674 509.7 L 510.31 510.135 L 512.017 511.36 L 513.383 512.417 L 514.62 513.447 L 515.41 514.138 L 516.662 515.289 L 517.411 516.019 L 518.196 516.815 L 519.013 517.679 L 519.809 518.563 L 520.498 519.366 L 521.757 520.905 L 523.357 523.075 L 523.953 523.93 L 524.923 525.444 L 525.56 526.488 L 526.63 528.41 L 527.4 529.909 L 528.243 531.709 L 528.907 533.277 L 529.515 534.856 L 530.025 536.315 L 530.451 537.661 L 530.794 538.846 L 531.014 539.688 C 531.182 540.331 531.335 540.973 531.476 541.623 L 531.703 542.748 L 531.905 543.88 L 532.085 545.025 C 532.186 545.707 532.273 546.389 532.347 547.071 L 532.439 548.11 C 532.52 548.999 532.574 549.903 532.601 550.807 L 532.628 551.846 L 532.628 628.704 C 532.628 629.428 532.044 630.011 531.322 630.011 L 515.632 630.011 C 514.963 630.011 514.413 629.509 514.339 628.858 L 514.326 628.704 L 514.326 591.795 L 512.694 593.121 L 511.362 594.124 L 510.31 594.86 L 509.399 595.475 L 508.229 596.226 L 506.809 597.07 L 504.868 598.133 L 504.011 598.569 L 502.465 599.311 L 500.397 600.195 L 498.642 600.872 L 497.713 601.2 L 495.47 601.909 L 494.653 602.136 L 492.744 602.618 L 490.877 603.013 L 489.192 603.314 L 488.252 603.449 L 486.473 603.669 L 485.631 603.749 L 484.303 603.85 L 482.683 603.931 L 480.998 603.956 C 452.481 603.956 429.359 580.917 429.359 552.501 C 429.359 524.627 451.597 501.928 479.358 501.064 Z M 447.661 552.501 C 447.661 534.152 462.588 519.279 480.998 519.279 C 482.088 519.279 483.165 519.332 484.231 519.433 L 485.019 519.519 L 486.62 519.747 L 487.43 519.894 L 488.366 520.095 L 489.867 520.47 L 491.433 520.939 L 493.073 521.527 C 493.782 521.803 494.478 522.103 495.162 522.424 L 495.651 522.653 L 497.305 523.522 L 498.609 524.293 C 499.084 524.587 499.56 524.895 500.02 525.216 L 500.798 525.772 L 501.588 526.375 C 502.712 527.257 503.769 528.202 504.774 529.22 L 505.838 530.351 C 510.765 535.833 513.891 542.956 514.286 550.8 L 514.307 551.222 L 514.326 552.963 C 514.092 569.645 501.528 583.361 485.301 585.443 L 484.278 585.562 L 482.925 585.663 L 480.998 585.716 C 462.588 585.716 447.661 570.843 447.661 552.501 Z M 346.615 535.846 C 356.449 535.846 364.428 543.739 364.428 553.479 C 364.428 563.212 356.449 571.103 346.615 571.103 C 336.775 571.103 328.803 563.212 328.803 553.479 C 328.803 543.739 336.775 535.846 346.615 535.846 Z M 622.943 507.537 L 622.059 507.055 L 619.777 505.917 L 617.969 505.107 L 615.667 504.203 C 614.509 503.775 613.331 503.393 612.139 503.046 L 611.276 502.81 C 609.528 502.343 607.747 501.962 605.933 501.674 L 605.411 501.594 L 602.961 501.293 L 601.657 501.185 C 600.378 501.091 599.092 501.037 597.787 501.037 C 569.271 501.037 546.157 524.024 546.157 552.38 C 546.157 580.736 569.271 603.724 597.787 603.724 L 599.427 603.697 L 601.877 603.563 L 604.482 603.296 L 606.523 602.986 L 608.59 602.591 L 610.625 602.124 L 612.548 601.593 L 614.91 600.832 L 616.636 600.195 L 618.572 599.392 L 620.614 598.441 L 622.254 597.597 L 623.953 596.648 L 626.021 595.376 L 627.93 594.07 C 628.961 593.334 629.959 592.558 630.922 591.754 L 631.123 591.586 L 631.13 603.87 C 631.204 604.521 631.758 605.021 632.429 605.021 L 648.111 605.021 C 648.835 605.021 649.423 604.44 649.423 603.724 L 649.423 551.731 L 649.316 549.133 L 649.163 547.246 L 648.909 545.097 L 648.615 543.277 L 648.18 541.148 L 647.823 539.647 L 647.155 537.285 L 646.773 536.113 L 646.172 534.421 L 645.032 531.63 L 644.182 529.815 L 642.957 527.493 L 641.94 525.752 L 641.366 524.834 L 640.388 523.355 L 639.636 522.303 L 638.247 520.483 L 637.462 519.526 L 635.936 517.786 L 634.825 516.607 L 633.439 515.242 L 632.568 514.432 L 631.476 513.468 L 628.994 511.473 L 627.347 510.282 L 625.326 508.944 L 622.943 507.537 Z M 597.787 519.238 C 579.379 519.238 564.458 534.072 564.458 552.38 C 564.458 570.682 579.379 585.523 597.787 585.523 L 599.815 585.463 L 600.966 585.375 L 602.868 585.14 L 603.196 585.086 C 604.132 584.94 605.063 584.745 605.98 584.518 L 607.647 584.056 L 609.382 583.466 L 610.064 583.213 L 610.98 582.824 L 612.627 582.068 L 614.174 581.252 L 615.413 580.514 L 616.544 579.785 L 617.841 578.855 C 625.842 572.858 631.036 563.358 631.123 552.649 L 631.069 550.473 C 630.802 545.774 629.544 541.336 627.509 537.358 L 626.591 535.686 L 625.553 534.033 L 625.124 533.403 L 624.302 532.292 L 623.551 531.348 L 622.662 530.311 L 622.005 529.608 L 621.062 528.65 L 619.629 527.345 L 618.17 526.153 L 617.011 525.303 L 615.794 524.486 L 614.174 523.51 L 613.39 523.088 L 611.758 522.276 L 610.459 521.715 L 608.94 521.139 L 607.673 520.719 L 606.429 520.362 L 605.029 520.021 L 603.618 519.741 L 602.184 519.519 L 601.348 519.426 C 600.183 519.299 598.992 519.238 597.787 519.238 Z M 804.237 514.72 L 803.561 514.105 L 802.008 512.779 L 801.05 512.009 L 799.464 510.818 L 797.831 509.68 L 795.809 508.401 L 794.001 507.371 L 792.978 506.828 L 791.699 506.186 L 789.998 505.402 L 788.58 504.8 L 787.422 504.345 L 785.111 503.541 L 783.244 502.978 L 782.24 502.704 L 780.594 502.303 L 778.265 501.841 L 776.65 501.58 L 775.746 501.452 L 774.355 501.3 L 772.775 501.165 L 770.927 501.071 L 769.656 501.044 L 767.507 501.064 C 739.753 501.928 717.516 524.574 717.516 552.38 C 717.516 580.736 740.63 603.724 769.147 603.724 L 770.841 603.697 L 772.454 603.617 L 773.78 603.516 L 775.372 603.348 L 776.403 603.215 L 777.341 603.074 L 779.027 602.78 L 780.112 602.558 L 780.895 602.385 L 781.979 602.124 L 783.619 601.674 L 785.105 601.22 L 786.792 600.644 L 788.553 599.975 L 789.958 599.378 L 792.168 598.347 L 793.025 597.913 L 794.966 596.854 L 796.927 595.663 L 798.459 594.646 L 799.511 593.909 L 800.85 592.905 L 802.482 591.586 L 802.489 603.87 C 802.563 604.521 803.119 605.021 803.788 605.021 L 819.472 605.021 C 820.197 605.021 820.778 604.44 820.778 603.724 L 820.778 551.731 L 820.751 550.694 C 820.724 549.79 820.671 548.893 820.598 548.002 L 820.497 546.972 L 820.242 544.922 C 820.129 544.161 820.002 543.403 819.854 542.647 L 819.627 541.529 L 819.165 539.602 L 818.945 538.758 L 818.362 536.811 L 817.973 535.633 L 817.352 533.932 L 817.058 533.201 L 816.393 531.635 L 815.556 529.842 L 814.786 528.343 L 814.21 527.304 L 813.072 525.39 L 812.677 524.755 L 811.513 523.021 L 810.542 521.688 L 809.377 520.203 L 808.654 519.319 L 807.959 518.522 L 806.352 516.775 L 805.562 515.985 L 804.237 514.72 Z M 769.147 519.238 C 750.738 519.238 735.817 534.072 735.817 552.38 C 735.817 570.682 750.738 585.523 769.147 585.523 L 771.075 585.468 L 772.427 585.369 L 773.451 585.248 C 789.677 583.172 802.249 569.49 802.475 552.842 L 802.475 551.765 L 802.435 550.688 C 802.04 542.862 798.915 535.752 793.989 530.284 L 793.399 529.649 L 792.924 529.153 C 791.926 528.141 790.862 527.197 789.744 526.321 L 788.948 525.718 L 788.17 525.163 C 787.709 524.841 787.241 524.533 786.758 524.239 L 785.453 523.47 L 783.799 522.606 L 783.318 522.372 C 782.634 522.051 781.932 521.756 781.23 521.48 L 780.326 521.147 L 778.524 520.564 L 777.413 520.263 L 775.578 519.853 L 774.77 519.707 L 773.953 519.581 L 772.379 519.393 C 771.315 519.292 770.238 519.238 769.147 519.238 Z M 715.707 520.912 L 715.707 502.825 L 714.844 502.832 C 686.354 503.288 663.401 526.052 663.401 554.074 L 663.401 604.568 C 663.401 604.821 663.603 605.021 663.85 605.021 L 681.407 605.021 C 681.656 605.021 681.864 604.821 681.864 604.568 L 681.864 553.524 C 682.165 535.465 697.2 520.912 715.707 520.912 Z" style="transform-box: fill-box; transform-origin: 50% 50%;" transform="matrix(0.997564, -0.069756, 0.069756, 0.997564, -0.000001, 0)"></path></g>
</svg></svg>